<svg xmlns="http://www.w3.org/2000/svg"  viewBox="0 0 100 100" width="100px" height="100px" baseProfile="basic"><path fill="#3070b7" d="M83,30.65v39c0,7.17-5.83,13-13,13H31c-7.17,0-13-5.83-13-13v-39c0-7.16,5.83-13,13-13h39 C77.17,17.65,83,23.49,83,30.65z"/><path fill="#31c4f3" d="M77.5,31.5V69c0,3.63-2.43,6.7-5.74,7.67C71.04,76.88,31.5,77,31.5,77c-4.42,0-8-3.58-8-8v-5.5 l24.12-40H69.5C73.92,23.5,77.5,27.08,77.5,31.5z"/><path fill="#1f212b" d="M70,17.654H31c-7.168,0-13,5.832-13,13v39c0,7.168,5.832,13,13,13h39c7.168,0,13-5.832,13-13v-39 C83,23.485,77.168,17.654,70,17.654z M81,69.654c0,6.065-4.935,11-11,11H31c-6.065,0-11-4.935-11-11v-39c0-6.065,4.935-11,11-11 h39c6.065,0,11,4.935,11,11V69.654z"/><path fill="#1f212b" d="M69.5,22.998H47.62c-0.176,0-0.339,0.092-0.43,0.242c0,0-24.192,40.168-24.192,40.26V69 c0,4.688,3.814,8.502,8.504,8.502c5.104-0.016,40.07-0.254,40.399-0.35c3.592-1.053,6.102-4.405,6.102-8.152V31.5 C78.002,26.812,74.188,22.998,69.5,22.998z M31.5,76.498c-1.423,0-2.75-0.406-3.885-1.097l13.83-23.559L56.6,76.379 C47.738,76.439,37.193,76.48,31.5,76.498z M49.067,38.857l10.2,18.141H45.81l-3.79-6.136L49.067,38.857z M76.998,56.998H72.25 c-0.277,0-0.502,0.225-0.502,0.502s0.225,0.502,0.502,0.502h4.748V69c0,3.305-2.212,6.26-5.34,7.179 c-0.49,0.074-6.47,0.139-13.883,0.192L46.43,58.002h21.32c0.277,0,0.502-0.225,0.502-0.502s-0.225-0.502-0.502-0.502h-7.33 L49.656,37.854l3.777-6.435c0.141-0.239,0.061-0.547-0.179-0.688c-0.24-0.141-0.547-0.061-0.688,0.18L26.789,74.825 c-1.698-1.376-2.786-3.475-2.786-5.825v-5.36l23.901-39.638h8.719l-2.931,4.993c-0.141,0.239-0.061,0.547,0.179,0.688 c0.08,0.047,0.167,0.068,0.254,0.068c0.172,0,0.34-0.088,0.434-0.248l3.229-5.501H69.5c4.134,0,7.498,3.364,7.498,7.498V56.998z"/></svg>