<svg xmlns="http://www.w3.org/2000/svg"  viewBox="0 0 100 100" width="100px" height="100px" baseProfile="basic"><path fill="#ae5ca3" d="M83,30.65v39c0,7.17-5.83,13-13,13H31c-7.17,0-13-5.83-13-13v-39c0-7.16,5.83-13,13-13h39 C77.17,17.65,83,23.49,83,30.65z"/><path fill="#e0a6ca" d="M77.5,31.5V69c0,3.63-2.43,6.7-5.74,7.67C71.04,76.88,31.5,77,31.5,77c-4.42,0-8-3.58-8-8v-5.5 l24.12-40H69.5C73.92,23.5,77.5,27.08,77.5,31.5z"/><path fill="#1f212b" d="M70,17.654H31c-7.168,0-13,5.832-13,13v39c0,7.168,5.832,13,13,13h39c7.168,0,13-5.832,13-13v-39 C83,23.485,77.168,17.654,70,17.654z M81,69.654c0,6.065-4.935,11-11,11H31c-6.065,0-11-4.935-11-11v-39c0-6.065,4.935-11,11-11 h39c6.065,0,11,4.935,11,11V69.654z"/><path fill="#1f212b" d="M69.5,22.998H47.62c-0.176,0-0.339,0.092-0.43,0.242l-24.12,40 c-0.047,0.079-0.072,0.168-0.072,0.26V69c0,4.688,3.814,8.502,8.504,8.502c5.104-0.016,16.564-0.055,25.983-0.123 c0.006,0,0.011,0.004,0.016,0.004c0.005,0,0.01-0.004,0.015-0.004c7.715-0.056,14.056-0.13,14.385-0.226 c3.592-1.053,6.102-4.405,6.102-8.152V31.5C78.002,26.812,74.188,22.998,69.5,22.998z M45.799,56.998l-3.693-5.974l3.576-6.017 c0.001-0.001,0.001-0.003,0.002-0.005h6.692c0.035,0,0.067-0.013,0.1-0.02l3.427,6.119l-3.377,5.897H45.799z M35.846,43.998 l8.336-13.824l7.742,13.824H35.846z M24.002,69v-5.36l11.238-18.638h9.275l-3.349,5.635c-0.079,0.073-0.136,0.162-0.156,0.263 l-14.22,23.926C25.092,73.45,24.002,71.351,24.002,69z M31.5,76.498c-1.422,0-2.749-0.405-3.883-1.096l13.91-23.404 l15.072,24.381C47.737,76.439,37.193,76.48,31.5,76.498z M76.998,56.998h-6.623c-0.277,0-0.502,0.225-0.502,0.502 s0.225,0.502,0.502,0.502h6.623V69c0,3.305-2.212,6.26-5.34,7.179c-0.49,0.074-6.47,0.139-13.883,0.192L46.419,58.002H65.75 c0.277,0,0.502-0.225,0.502-0.502s-0.225-0.502-0.502-0.502H53.683l6.226-10.873c0.138-0.241,0.054-0.548-0.187-0.686 c-0.242-0.141-0.548-0.056-0.686,0.186l-2.553,4.459l-11.704-20.9l3.124-5.182H69.5c0.618,0,1.216,0.083,1.791,0.225L60.827,42.5 c-0.138,0.241-0.054,0.548,0.187,0.686c0.079,0.046,0.165,0.066,0.249,0.066c0.174,0,0.344-0.09,0.437-0.252l10.572-18.461 c2.766,1.105,4.727,3.806,4.727,6.961V56.998z"/></svg>