<svg xmlns="http://www.w3.org/2000/svg"  viewBox="0 0 100 100" width="100px" height="100px" baseProfile="basic"><path fill="#b74242" d="M83,30.65v39c0,7.17-5.83,13-13,13H31c-7.17,0-13-5.83-13-13v-39c0-7.16,5.83-13,13-13h39 C77.17,17.65,83,23.49,83,30.65z"/><path fill="#f59173" d="M78,31.5V69c0,3.54-2.24,6.73-5.52,7.95c-0.19,0.08-0.38,0.14-0.58,0.2 c-0.13,0.04-0.27,0.07-0.4,0.1c-0.66,0.17-1.33,0.25-2,0.25h-38c-4.69,0-8.5-3.81-8.5-8.5v-5.64L47.34,23H69.5 C74.19,23,78,26.81,78,31.5z"/><path fill="#1f212b" d="M70,17.654H31c-7.168,0-13,5.832-13,13v39c0,7.168,5.832,13,13,13h39c7.168,0,13-5.832,13-13v-39 C83,23.485,77.168,17.654,70,17.654z M81,69.654c0,6.065-4.935,11-11,11H31c-6.065,0-11-4.935-11-11v-39c0-6.065,4.935-11,11-11 h39c6.065,0,11,4.935,11,11V69.654z"/><path fill="#1f212b" d="M69.5,22.998H47.342l-3.225,5.346l0,0.001L31.672,48.978h0L22.998,63.36V69 c0,4.688,3.813,8.502,8.502,8.502h38c0.671,0,1.34-0.101,1.999-0.261l0.015,0.026l0.384-0.112 c0.007-0.002,0.014-0.005,0.021-0.007l0.583-0.171l-0.013-0.022c3.275-1.234,5.513-4.418,5.513-7.953V31.5 C78.002,26.812,74.188,22.998,69.5,22.998z M47.083,76.498H31.5c-4.134,0-7.498-3.364-7.498-7.498v-5.36l8.235-13.653 l9.185,16.401L47.083,76.498z M59.083,76.498H48.236l-5.581-9.965l-9.821-17.536l5.626-9.328l12.703,22.684L59.083,76.498z M60.236,76.498l-7.86-14.035L39.057,38.68l5.625-9.327L64.55,64.832l6.447,11.513c-0.495,0.102-0.996,0.153-1.497,0.153H60.236z M76.998,69c0,3.169-2.039,6.02-5.005,7.067L45.28,28.363l2.63-4.361h5.754l23.335,41.866V69z M76.998,63.802l-22.184-39.8H69.5 c4.134,0,7.498,3.364,7.498,7.498V63.802z"/></svg>